<?xml version="1.0" standalone="no"?>
<!DOCTYPE svg PUBLIC "-//W3C//DTD SVG 20010904//EN"
 "http://www.w3.org/TR/2001/REC-SVG-20010904/DTD/svg10.dtd">
<svg version="1.0" xmlns="http://www.w3.org/2000/svg"
 width="500.000000pt" height="500.000000pt" viewBox="0 0 500.000000 500.000000"
 preserveAspectRatio="xMidYMid meet">

<g transform="translate(0.000000,500.000000) scale(0.100000,-0.100000)"
fill="#000000" stroke="none">
<path d="M2450 4068 c-22 -51 -230 -593 -230 -599 0 -4 15 -9 32 -11 l33 -3
-51 -36 -50 -36 -122 -315 -122 -315 29 -86 c17 -48 27 -87 25 -87 -3 0 -26
14 -50 32 -24 17 -45 29 -47 27 -13 -16 -203 -525 -198 -527 10 -4 482 25 486
30 3 2 70 190 149 417 80 227 147 415 149 418 3 2 14 -22 25 -54 88 -261 477
-1351 485 -1360 7 -10 68 -13 242 -13 174 0 235 3 243 13 7 8 -32 120 -138
392 l-147 380 -50 25 -50 25 19 55 19 55 -309 795 c-294 756 -311 795 -336
798 -19 3 -28 -3 -36 -20z"/>
<path d="M1815 1998 c-99 -6 -164 -14 -171 -21 -18 -20 -156 -386 -152 -405 3
-16 24 -17 248 -17 l245 0 73 210 c39 116 75 218 78 228 5 15 -3 17 -78 15
-46 0 -155 -5 -243 -10z"/>
</g>
</svg>
